<svg version="1.1" id="Layer_1" xmlns="http://www.w3.org/2000/svg" xmlns:xlink="http://www.w3.org/1999/xlink" x="0px" y="0px"
	 width="100%" viewBox="0 0 589 511" enable-background="new 0 0 589 511" xml:space="preserve">
<path fill="#030014" opacity="1.000000" stroke="none" 
	d="
M344.000000,512.000000 
	C229.359268,512.000000 115.218544,512.000000 1.038910,512.000000 
	C1.038910,341.731323 1.038910,171.462616 1.038910,1.096963 
	C197.224045,1.096963 393.448151,1.096963 589.836121,1.096963 
	C589.836121,171.333206 589.836121,341.666595 589.836121,512.000000 
	C508.129303,512.000000 426.314667,512.000000 344.000000,512.000000 
M147.925186,343.997375 
	C157.483414,343.997375 167.041641,343.997375 176.943665,343.997375 
	C176.943665,325.362579 176.943665,307.174469 177.813034,288.584351 
	C184.973938,288.533020 192.144119,288.687866 199.292892,288.366547 
	C205.250320,288.098816 211.349274,287.964844 217.099014,286.581116 
	C254.215256,277.648956 268.578552,231.718216 243.230637,203.019531 
	C231.987793,190.290497 216.929306,186.197647 200.573776,186.040726 
	C183.918274,185.880920 167.259903,186.009720 150.602844,186.039230 
	C149.186371,186.041748 147.770264,186.248383 146.361252,186.359634 
	C146.261536,187.509033 146.155014,188.164413 146.154892,188.819824 
	C146.145370,239.457474 146.139130,290.095123 146.178406,340.732727 
	C146.179199,341.753693 146.717987,342.774231 147.925186,343.997375 
M337.335358,343.948761 
	C338.615906,343.588806 339.916168,343.286957 341.174133,342.860413 
	C376.049194,331.033936 381.306885,286.116394 357.406647,265.949402 
	C348.973816,258.833771 339.366608,254.233627 329.356873,250.054230 
	C322.652252,247.254852 315.857025,244.423752 309.700195,240.635223 
	C304.186127,237.242172 301.391266,231.453522 302.305359,224.802490 
	C303.287567,217.656052 307.962128,213.176529 314.726746,211.338562 
	C318.176849,210.401138 321.979584,210.164001 325.563171,210.426407 
	C336.638947,211.237366 345.445251,217.145660 353.897980,224.258163 
	C359.731750,217.529587 365.366333,211.030746 371.230499,204.267120 
	C369.120300,202.298737 367.236755,200.436722 365.244415,198.699524 
	C344.690338,180.777817 313.333588,177.434860 291.885132,190.933670 
	C266.883850,206.668472 264.374939,240.429947 284.113342,258.662598 
	C292.359100,266.279297 301.996155,271.170715 311.951172,275.815979 
	C319.593628,279.382141 327.844299,282.255066 334.483612,287.226868 
	C346.327606,296.096130 343.241699,312.092621 329.311707,317.075378 
	C317.866302,321.169373 306.967163,318.664520 296.758148,313.031464 
	C291.581451,310.175049 286.950287,306.329956 281.664337,302.647491 
	C275.836700,309.124481 269.914795,315.706238 263.811157,322.489960 
	C284.277557,343.887268 308.485413,350.420502 337.335358,343.948761 
M403.006470,354.566620 
	C421.467834,294.987366 439.929169,235.408096 458.558075,175.288116 
	C450.938599,175.288116 444.270782,175.587769 437.645935,175.183411 
	C433.185638,174.911148 431.353149,176.446289 430.042572,180.723007 
	C413.914978,233.351608 397.569427,285.913391 381.296967,338.497650 
	C378.766479,346.674835 376.319794,354.877991 373.860809,362.981995 
	C374.579254,363.361023 374.857361,363.634491 375.137970,363.637085 
	C380.465851,363.686707 385.794037,363.722046 391.122162,363.724762 
	C400.238403,363.729431 400.238403,363.719086 403.006470,354.566620 
M83.059982,225.560196 
	C68.748436,240.384445 54.436893,255.208710 41.396629,268.716156 
	C61.492363,289.806580 82.229385,311.570007 103.423485,333.813171 
	C110.104004,326.302551 115.925049,319.758209 121.476097,313.517395 
	C107.859421,299.421478 93.198502,284.244568 78.520668,269.050171 
	C93.011230,254.232224 107.849525,239.058716 122.425087,224.153870 
	C116.476921,218.034546 110.377190,211.759308 103.998772,205.197357 
	C97.113907,211.882172 90.332382,218.466660 83.059982,225.560196 
M502.347473,277.848358 
	C490.414886,290.146454 478.482330,302.444550 467.230225,314.041321 
	C472.678589,319.948792 478.594025,326.362762 484.648254,332.927155 
	C506.526550,311.451782 528.077332,290.297852 549.748291,269.026062 
	C527.689087,247.402634 506.166229,226.304993 484.842194,205.402222 
	C478.444000,211.760330 472.217560,217.947723 465.833344,224.291931 
	C480.692596,239.448334 495.550842,254.603699 510.441406,269.792023 
	C508.038483,272.188385 505.445068,274.774689 502.347473,277.848358 
z"/>
<path fill="#9671EC" opacity="1.000000" stroke="none" 
	d="
M147.005798,343.794983 
	C146.717987,342.774231 146.179199,341.753693 146.178406,340.732727 
	C146.139130,290.095123 146.145370,239.457474 146.154892,188.819824 
	C146.155014,188.164413 146.261536,187.509033 146.361252,186.359634 
	C147.770264,186.248383 149.186371,186.041748 150.602844,186.039230 
	C167.259903,186.009720 183.918274,185.880920 200.573776,186.040726 
	C216.929306,186.197647 231.987793,190.290497 243.230637,203.019531 
	C268.578552,231.718216 254.215256,277.648956 217.099014,286.581116 
	C211.349274,287.964844 205.250320,288.098816 199.292892,288.366547 
	C192.144119,288.687866 184.973938,288.533020 177.165588,289.140076 
	C176.343369,291.664215 176.023560,293.632202 176.017166,295.601166 
	C175.973129,309.210541 176.003860,322.820129 175.990585,336.429626 
	C175.984192,342.976471 175.962570,342.884460 169.276108,343.025970 
	C161.850571,343.183105 154.429062,343.530457 147.005798,343.794983 
M178.180435,262.811096 
	C185.336075,262.802277 192.492767,262.869568 199.647125,262.769012 
	C215.151154,262.551117 222.382263,257.272766 224.353241,242.079361 
	C226.439224,225.999557 220.790604,212.802475 201.050430,212.967697 
	C193.063522,213.034546 185.075806,213.004379 176.615524,213.697495 
	C176.414825,214.658173 176.042206,215.618317 176.039291,216.579590 
	C175.996582,230.652100 175.967575,244.724960 176.054321,258.797028 
	C176.062805,260.174500 176.855789,261.547089 178.180435,262.811096 
z"/>
<path fill="#9771EC" opacity="1.000000" stroke="none" 
	d="
M336.926392,344.007019 
	C308.485413,350.420502 284.277557,343.887268 263.811157,322.489960 
	C269.914795,315.706238 275.836700,309.124481 281.664337,302.647491 
	C286.950287,306.329956 291.581451,310.175049 296.758148,313.031464 
	C306.967163,318.664520 317.866302,321.169373 329.311707,317.075378 
	C343.241699,312.092621 346.327606,296.096130 334.483612,287.226868 
	C327.844299,282.255066 319.593628,279.382141 311.951172,275.815979 
	C301.996155,271.170715 292.359100,266.279297 284.113342,258.662598 
	C264.374939,240.429947 266.883850,206.668472 291.885132,190.933670 
	C313.333588,177.434860 344.690338,180.777817 365.244415,198.699524 
	C367.236755,200.436722 369.120300,202.298737 371.230499,204.267120 
	C365.366333,211.030746 359.731750,217.529587 353.897980,224.258163 
	C345.445251,217.145660 336.638947,211.237366 325.563171,210.426407 
	C321.979584,210.164001 318.176849,210.401138 314.726746,211.338562 
	C307.962128,213.176529 303.287567,217.656052 302.305359,224.802490 
	C301.391266,231.453522 304.186127,237.242172 309.700195,240.635223 
	C315.857025,244.423752 322.652252,247.254852 329.356873,250.054230 
	C339.366608,254.233627 348.973816,258.833771 357.406647,265.949402 
	C381.306885,286.116394 376.049194,331.033936 341.174133,342.860413 
	C339.916168,343.286957 338.615906,343.588806 336.926392,344.007019 
z"/>
<path fill="#9670EB" opacity="1.000000" stroke="none" 
	d="
M402.912018,354.957275 
	C400.238403,363.719086 400.238403,363.729431 391.122162,363.724762 
	C385.794037,363.722046 380.465851,363.686707 375.137970,363.637085 
	C374.857361,363.634491 374.579254,363.361023 373.860809,362.981995 
	C376.319794,354.877991 378.766479,346.674835 381.296967,338.497650 
	C397.569427,285.913391 413.914978,233.351608 430.042572,180.723007 
	C431.353149,176.446289 433.185638,174.911148 437.645935,175.183411 
	C444.270782,175.587769 450.938599,175.288116 458.558075,175.288116 
	C439.929169,235.408096 421.467834,294.987366 402.912018,354.957275 
z"/>
<path fill="#9670EB" opacity="1.000000" stroke="none" 
	d="
M83.305420,225.305664 
	C90.332382,218.466660 97.113907,211.882172 103.998772,205.197357 
	C110.377190,211.759308 116.476921,218.034546 122.425087,224.153870 
	C107.849525,239.058716 93.011230,254.232224 78.520668,269.050171 
	C93.198502,284.244568 107.859421,299.421478 121.476097,313.517395 
	C115.925049,319.758209 110.104004,326.302551 103.423485,333.813171 
	C82.229385,311.570007 61.492363,289.806580 41.396629,268.716156 
	C54.436893,255.208710 68.748436,240.384445 83.305420,225.305664 
z"/>
<path fill="#956EEA" opacity="1.000000" stroke="none" 
	d="
M502.599579,277.604675 
	C505.445068,274.774689 508.038483,272.188385 510.441406,269.792023 
	C495.550842,254.603699 480.692596,239.448334 465.833344,224.291931 
	C472.217560,217.947723 478.444000,211.760330 484.842194,205.402222 
	C506.166229,226.304993 527.689087,247.402634 549.748291,269.026062 
	C528.077332,290.297852 506.526550,311.451782 484.648254,332.927155 
	C478.594025,326.362762 472.678589,319.948792 467.230225,314.041321 
	C478.482330,302.444550 490.414886,290.146454 502.599579,277.604675 
z"/>
<path fill="#AE82EF" opacity="1.000000" stroke="none" 
	d="
M147.465485,343.896179 
	C154.429062,343.530457 161.850571,343.183105 169.276108,343.025970 
	C175.962570,342.884460 175.984192,342.976471 175.990585,336.429626 
	C176.003860,322.820129 175.973129,309.210541 176.017166,295.601166 
	C176.023560,293.632202 176.343369,291.664215 176.730896,289.341064 
	C176.943665,307.174469 176.943665,325.362579 176.943665,343.997375 
	C167.041641,343.997375 157.483414,343.997375 147.465485,343.896179 
z"/>
<path fill="#050216" opacity="1.000000" stroke="none" 
	d="
M177.088455,213.018341 
	C185.075806,213.004379 193.063522,213.034546 201.050430,212.967697 
	C220.790604,212.802475 226.439224,225.999557 224.353241,242.079361 
	C222.382263,257.272766 215.151154,262.551117 199.647125,262.769012 
	C192.492767,262.869568 185.336075,262.802277 177.636230,262.411377 
	C177.090820,245.680573 177.089645,229.349472 177.088455,213.018341 
z"/>
<path fill="#AE82EC" opacity="1.000000" stroke="none" 
	d="
M176.851990,213.357925 
	C177.089645,229.349472 177.090820,245.680573 177.188324,262.466827 
	C176.855789,261.547089 176.062805,260.174500 176.054321,258.797028 
	C175.967575,244.724960 175.996582,230.652100 176.039291,216.579590 
	C176.042206,215.618317 176.414825,214.658173 176.851990,213.357925 
z"/>
</svg>