<svg xmlns="http://www.w3.org/2000/svg" xmlns:xlink="http://www.w3.org/1999/xlink" width="40" zoomAndPan="magnify" viewBox="0 0 30 30.000001" height="40" preserveAspectRatio="xMidYMid meet" version="1.0"><defs><clipPath id="f06cf64054"><path d="M 4 0 L 26 0 L 26 29.03125 L 4 29.03125 Z M 4 0 " clip-rule="nonzero"/></clipPath><clipPath id="f910b2bf0c"><path d="M 0.484375 15 L 3 15 L 3 24 L 0.484375 24 Z M 0.484375 15 " clip-rule="nonzero"/></clipPath><clipPath id="056c055b08"><path d="M 27 15 L 29.515625 15 L 29.515625 24 L 27 24 Z M 27 15 " clip-rule="nonzero"/></clipPath></defs><path fill="#8871cd" d="M 10.160156 16.453125 C 10.160156 15.917969 10.59375 15.484375 11.128906 15.484375 C 11.664062 15.484375 12.097656 15.917969 12.097656 16.453125 C 12.097656 16.984375 11.664062 17.417969 11.128906 17.417969 C 10.59375 17.417969 10.160156 16.984375 10.160156 16.453125 Z M 10.160156 16.453125 " fill-opacity="1" fill-rule="nonzero"/><path fill="#8871cd" d="M 17.902344 16.453125 C 17.902344 15.917969 18.335938 15.484375 18.871094 15.484375 C 19.40625 15.484375 19.839844 15.917969 19.839844 16.453125 C 19.839844 16.984375 19.40625 17.417969 18.871094 17.417969 C 18.335938 17.417969 17.902344 16.984375 17.902344 16.453125 Z M 17.902344 16.453125 " fill-opacity="1" fill-rule="nonzero"/><g clip-path="url(#f06cf64054)"><path fill="#8871cd" d="M 15.96875 3.914062 C 21.394531 4.402344 25.644531 8.964844 25.644531 14.515625 L 25.644531 26.128906 C 25.644531 27.730469 24.34375 29.03125 22.742188 29.03125 L 7.257812 29.03125 C 5.65625 29.03125 4.355469 27.730469 4.355469 26.128906 L 4.355469 14.515625 C 4.355469 8.964844 8.605469 4.402344 14.03125 3.914062 L 14.03125 0 L 15.96875 0 Z M 11.128906 13.546875 C 9.527344 13.546875 8.226562 14.847656 8.226562 16.453125 C 8.226562 18.054688 9.527344 19.355469 11.128906 19.355469 C 12.734375 19.355469 14.03125 18.054688 14.03125 16.453125 C 14.03125 14.847656 12.734375 13.546875 11.128906 13.546875 Z M 18.871094 13.546875 C 17.265625 13.546875 15.96875 14.847656 15.96875 16.453125 C 15.96875 18.054688 17.265625 19.355469 18.871094 19.355469 C 20.472656 19.355469 21.773438 18.054688 21.773438 16.453125 C 21.773438 14.847656 20.472656 13.546875 18.871094 13.546875 Z M 21.773438 23.226562 L 8.226562 23.226562 L 8.226562 21.289062 L 21.773438 21.289062 Z M 21.773438 23.226562 " fill-opacity="1" fill-rule="evenodd"/></g><g clip-path="url(#f910b2bf0c)"><path fill="#8871cd" d="M 0.484375 15.484375 L 0.484375 23.226562 L 2.417969 23.226562 L 2.417969 15.484375 Z M 0.484375 15.484375 " fill-opacity="1" fill-rule="nonzero"/></g><g clip-path="url(#056c055b08)"><path fill="#8871cd" d="M 29.515625 15.484375 L 27.582031 15.484375 L 27.582031 23.226562 L 29.515625 23.226562 Z M 29.515625 15.484375 " fill-opacity="1" fill-rule="nonzero"/></g></svg>